<svg width="125" height="35" viewBox="0 0 125 35" fill="none" xmlns="http://www.w3.org/2000/svg">
<rect y="19.7131" width="9.4988" height="9.4988" rx="2.19203" transform="rotate(-45 0 19.7131)" fill="url(#paint0_linear_416_645)"/>
<rect x="8.78333" y="27.7505" width="9.4988" height="9.4988" rx="2.19203" transform="rotate(-45 8.78333 27.7505)" fill="url(#paint1_linear_416_645)"/>
<rect x="6.21515" y="9.28491" width="13.1307" height="13.1307" rx="2.46201" transform="rotate(-45 6.21515 9.28491)" fill="url(#paint2_linear_416_645)"/>
<rect x="17.5667" y="19.7131" width="9.4988" height="9.4988" rx="2.19203" transform="rotate(-45 17.5667 19.7131)" fill="url(#paint3_linear_416_645)"/>
<path d="M42.078 22.2336V11.8036H45.872C46.572 11.8036 47.188 11.9343 47.72 12.1956C48.2613 12.4476 48.6813 12.821 48.98 13.3156C49.2787 13.801 49.428 14.3843 49.428 15.0656C49.428 15.7376 49.274 16.3163 48.966 16.8016C48.6673 17.287 48.252 17.6603 47.72 17.9216C47.188 18.183 46.572 18.3136 45.872 18.3136H43.73V22.2336H42.078ZM43.73 16.8436H45.914C46.2873 16.8436 46.614 16.769 46.894 16.6196C47.174 16.4703 47.3933 16.265 47.552 16.0036C47.7107 15.733 47.79 15.4156 47.79 15.0516C47.79 14.6876 47.7107 14.375 47.552 14.1136C47.3933 13.843 47.174 13.6376 46.894 13.4976C46.614 13.3483 46.2873 13.2736 45.914 13.2736H43.73V16.8436ZM51.1288 22.2336V11.8036H52.7808V20.7636H57.2888V22.2336H51.1288ZM57.7517 22.2336L61.4197 11.8036H63.4637L67.1317 22.2336H65.3677L64.5697 19.8956H60.3277L59.5157 22.2336H57.7517ZM60.8037 18.4256H64.0657L62.2177 12.9656H62.6797L60.8037 18.4256ZM69.5198 22.2336V13.2736H66.7478V11.8036H73.8878V13.2736H71.1578V22.2336H69.5198ZM75.1229 22.2336V11.8036H81.9969V13.2736H76.7749V16.2696H81.7169V17.7396H76.7749V20.7636H81.9969V22.2336H75.1229ZM83.5311 22.2336V11.8036H90.3211V13.2736H85.1831V16.4096H89.7611V17.8796H85.1831V22.2336H83.5311ZM96.6382 22.4016C95.8822 22.4016 95.1775 22.2663 94.5242 21.9956C93.8802 21.725 93.3109 21.347 92.8162 20.8616C92.3309 20.3763 91.9482 19.807 91.6682 19.1536C91.3975 18.5003 91.2622 17.7863 91.2622 17.0116C91.2622 16.237 91.3975 15.523 91.6682 14.8696C91.9482 14.207 92.3309 13.6376 92.8162 13.1616C93.3015 12.6763 93.8709 12.303 94.5242 12.0416C95.1775 11.771 95.8822 11.6356 96.6382 11.6356C97.4035 11.6356 98.1082 11.771 98.7522 12.0416C99.4055 12.303 99.9749 12.6763 100.46 13.1616C100.955 13.647 101.338 14.2163 101.608 14.8696C101.879 15.523 102.014 16.237 102.014 17.0116C102.014 17.7863 101.874 18.5003 101.594 19.1536C101.324 19.807 100.946 20.3763 100.46 20.8616C99.9749 21.347 99.4055 21.725 98.7522 21.9956C98.0989 22.2663 97.3942 22.4016 96.6382 22.4016ZM96.6382 20.8896C97.1795 20.8896 97.6742 20.7916 98.1222 20.5956C98.5795 20.3996 98.9762 20.129 99.3122 19.7836C99.6482 19.429 99.9095 19.0183 100.096 18.5516C100.283 18.0756 100.376 17.5623 100.376 17.0116C100.376 16.461 100.283 15.9523 100.096 15.4856C99.9095 15.019 99.6482 14.6083 99.3122 14.2536C98.9762 13.899 98.5795 13.6236 98.1222 13.4276C97.6742 13.2316 97.1795 13.1336 96.6382 13.1336C96.0969 13.1336 95.5975 13.2316 95.1402 13.4276C94.6922 13.6236 94.3002 13.899 93.9642 14.2536C93.6282 14.6083 93.3669 15.019 93.1802 15.4856C93.0029 15.9523 92.9142 16.461 92.9142 17.0116C92.9142 17.5623 93.0029 18.0756 93.1802 18.5516C93.3669 19.0183 93.6282 19.429 93.9642 19.7836C94.3002 20.129 94.6969 20.3996 95.1542 20.5956C95.6115 20.7916 96.1062 20.8896 96.6382 20.8896ZM103.861 22.2336V11.8036H107.655C108.355 11.8036 108.971 11.9343 109.503 12.1956C110.035 12.4476 110.451 12.821 110.749 13.3156C111.057 13.801 111.211 14.3843 111.211 15.0656C111.211 15.7843 111.029 16.4003 110.665 16.9136C110.311 17.427 109.83 17.8003 109.223 18.0336L111.631 22.2336H109.755L107.193 17.6836L108.271 18.3136H105.513V22.2336H103.861ZM105.513 16.8436H107.683C108.066 16.8436 108.397 16.769 108.677 16.6196C108.957 16.4703 109.172 16.265 109.321 16.0036C109.48 15.733 109.559 15.4156 109.559 15.0516C109.559 14.6876 109.48 14.375 109.321 14.1136C109.172 13.843 108.957 13.6376 108.677 13.4976C108.397 13.3483 108.066 13.2736 107.683 13.2736H105.513V16.8436ZM113.021 22.2336V11.8036H114.561L118.481 17.2356H117.711L121.561 11.8036H123.101V22.2336H121.463V13.7496L122.079 13.9176L118.145 19.2936H117.977L114.127 13.9176L114.673 13.7496V22.2336H113.021Z" fill="#001333"/>
<defs>
<linearGradient id="paint0_linear_416_645" x1="9.32751" y1="19.7131" x2="-1.97263" y2="23.9469" gradientUnits="userSpaceOnUse">
<stop stop-color="#2878FF"/>
<stop offset="1" stop-color="#2C65C8"/>
</linearGradient>
<linearGradient id="paint1_linear_416_645" x1="18.1108" y1="27.7505" x2="6.8107" y2="31.9843" gradientUnits="userSpaceOnUse">
<stop stop-color="#2878FF"/>
<stop offset="1" stop-color="#2C65C8"/>
</linearGradient>
<linearGradient id="paint2_linear_416_645" x1="19.1091" y1="9.28491" x2="3.48828" y2="15.1375" gradientUnits="userSpaceOnUse">
<stop stop-color="#2878FF"/>
<stop offset="1" stop-color="#2C65C8"/>
</linearGradient>
<linearGradient id="paint3_linear_416_645" x1="26.8942" y1="19.7131" x2="15.594" y2="23.9469" gradientUnits="userSpaceOnUse">
<stop stop-color="#2878FF"/>
<stop offset="1" stop-color="#2C65C8"/>
</linearGradient>
</defs>
</svg>
