<svg width="137" height="33" viewBox="0 0 137 33" fill="none" xmlns="http://www.w3.org/2000/svg">
<rect y="18.9795" width="9.4988" height="9.4988" rx="2.19203" transform="rotate(-45 0 18.9795)" fill="white"/>
<rect x="8.78333" y="27.0168" width="9.4988" height="9.4988" rx="2.19203" transform="rotate(-45 8.78333 27.0168)" fill="white"/>
<rect x="6.21515" y="8.55115" width="13.1307" height="13.1307" rx="2.46201" transform="rotate(-45 6.21515 8.55115)" fill="white"/>
<rect x="17.5667" y="18.9795" width="9.4988" height="9.4988" rx="2.19203" transform="rotate(-45 17.5667 18.9795)" fill="white"/>
<path d="M42.152 22.5V10.58H46.6C47.4107 10.58 48.1253 10.7293 48.744 11.028C49.3733 11.316 49.864 11.7427 50.216 12.308C50.568 12.8627 50.744 13.54 50.744 14.34C50.744 15.1293 50.5627 15.8067 50.2 16.372C49.848 16.9267 49.3627 17.3533 48.744 17.652C48.1253 17.9507 47.4107 18.1 46.6 18.1H44.328V22.5H42.152ZM44.328 16.18H46.632C47.0267 16.18 47.368 16.1053 47.656 15.956C47.944 15.796 48.168 15.5773 48.328 15.3C48.488 15.0227 48.568 14.7027 48.568 14.34C48.568 13.9667 48.488 13.6467 48.328 13.38C48.168 13.1027 47.944 12.8893 47.656 12.74C47.368 12.58 47.0267 12.5 46.632 12.5H44.328V16.18ZM52.527 22.5V10.58H54.703V20.58H59.807V22.5H52.527ZM60.2385 22.5L64.3505 10.58H67.1665L71.2785 22.5H68.9105L68.0625 19.94H63.4545L62.5905 22.5H60.2385ZM64.0785 18.02H67.4385L65.4545 12.084H66.0625L64.0785 18.02ZM73.9203 22.5V12.5H70.8323V10.58H79.1523V12.5H76.1123V22.5H73.9203ZM80.4801 22.5V10.58H88.4001V12.5H82.6561V15.556H88.0801V17.476H82.6561V20.58H88.4001V22.5H80.4801ZM89.9958 22.5V10.58H97.9478V12.5H92.1718V15.796H97.2278V17.716H92.1718V22.5H89.9958ZM105.087 22.692C104.212 22.692 103.396 22.5373 102.639 22.228C101.881 21.9187 101.22 21.4867 100.655 20.932C100.089 20.3773 99.6465 19.7267 99.3265 18.98C99.0172 18.2227 98.8625 17.4067 98.8625 16.532C98.8625 15.6467 99.0172 14.8307 99.3265 14.084C99.6358 13.3373 100.073 12.6867 100.639 12.132C101.204 11.5773 101.865 11.1507 102.623 10.852C103.38 10.5427 104.201 10.388 105.087 10.388C105.972 10.388 106.793 10.5427 107.551 10.852C108.308 11.1613 108.969 11.5933 109.535 12.148C110.1 12.692 110.537 13.3373 110.847 14.084C111.167 14.8307 111.327 15.6467 111.327 16.532C111.327 17.4067 111.167 18.2227 110.847 18.98C110.527 19.7267 110.084 20.3773 109.519 20.932C108.953 21.4867 108.292 21.9187 107.535 22.228C106.788 22.5373 105.972 22.692 105.087 22.692ZM105.087 20.708C105.673 20.708 106.212 20.6067 106.703 20.404C107.193 20.1907 107.62 19.8973 107.983 19.524C108.356 19.1507 108.639 18.708 108.831 18.196C109.033 17.684 109.135 17.1293 109.135 16.532C109.135 15.9347 109.033 15.3853 108.831 14.884C108.639 14.372 108.356 13.9293 107.983 13.556C107.62 13.172 107.193 12.8787 106.703 12.676C106.212 12.4733 105.673 12.372 105.087 12.372C104.511 12.372 103.977 12.4733 103.487 12.676C102.996 12.8787 102.564 13.172 102.191 13.556C101.828 13.9293 101.545 14.372 101.343 14.884C101.14 15.3853 101.039 15.9347 101.039 16.532C101.039 17.1293 101.14 17.684 101.343 18.196C101.545 18.708 101.828 19.1507 102.191 19.524C102.564 19.8973 102.996 20.1907 103.487 20.404C103.977 20.6067 104.511 20.708 105.087 20.708ZM113.261 22.5V10.58H117.693C118.504 10.58 119.219 10.7293 119.837 11.028C120.467 11.316 120.957 11.7427 121.309 12.308C121.661 12.8627 121.837 13.54 121.837 14.34C121.837 15.1613 121.64 15.86 121.245 16.436C120.861 17.012 120.339 17.4387 119.677 17.716L122.413 22.5H119.949L117.021 17.268L118.429 18.1H115.437V22.5H113.261ZM115.437 16.18H117.725C118.12 16.18 118.461 16.1053 118.749 15.956C119.037 15.796 119.261 15.5773 119.421 15.3C119.581 15.0227 119.661 14.7027 119.661 14.34C119.661 13.9667 119.581 13.6467 119.421 13.38C119.261 13.1027 119.037 12.8893 118.749 12.74C118.461 12.58 118.12 12.5 117.725 12.5H115.437V16.18ZM123.84 22.5V10.58H125.92L130.384 16.644H129.392L133.76 10.58H135.84V22.5H133.648V13.06L134.496 13.268L129.968 19.3H129.712L125.296 13.268L126.016 13.06V22.5H123.84Z" fill="white"/>
</svg>
